<?xml version="1.0" encoding="utf-8"?>
<!-- Generator: Adobe Illustrator 22.1.0, SVG Export Plug-In . SVG Version: 6.00 Build 0)  -->
<svg version="1.1" id="Слой_1" xmlns="http://www.w3.org/2000/svg" xmlns:xlink="http://www.w3.org/1999/xlink" x="0px" y="0px"
	 width="128px" height="38px" viewBox="0 0 128 38" style="enable-background:new 0 0 128 38;" xml:space="preserve">
<style type="text/css">
	.st0{fill:#FFFFFF;}
</style>
<path class="st0" d="M123.4,38H4.5C2,38,0,36,0,33.5v-29C0,2,2,0,4.5,0h119c2.5,0,4.6,2,4.6,4.5v29C128,36,125.9,38,123.4,38z"/>
<path d="M43.6,11.7c-0.4,0-0.7-0.1-1-0.3c-0.3-0.2-0.4-0.5-0.4-0.8h-0.8c0,0.4,0.1,0.7,0.3,1s0.5,0.5,0.8,0.6s0.7,0.2,1.1,0.2
	c0.7,0,1.3-0.2,1.7-0.5c0.4-0.3,0.6-0.8,0.6-1.3c0-0.7-0.4-1.2-1.1-1.5c0.3-0.1,0.6-0.3,0.7-0.6c0.2-0.2,0.3-0.5,0.3-0.8
	c0-0.6-0.2-1-0.6-1.3C44.9,6.2,44.3,6,43.6,6c-0.4,0-0.8,0.1-1.1,0.2c-0.3,0.1-0.6,0.4-0.8,0.6c-0.2,0.3-0.3,0.6-0.3,0.9h0.8
	c0-0.3,0.1-0.5,0.4-0.7c0.2-0.2,0.6-0.3,0.9-0.3c0.4,0,0.8,0.1,1,0.3C44.9,7.2,45,7.4,45,7.8c0,0.3-0.1,0.6-0.3,0.8
	c-0.2,0.2-0.5,0.3-1,0.3H43v0.7h0.8c0.9,0,1.4,0.4,1.4,1.1c0,0.3-0.1,0.6-0.4,0.8C44.4,11.6,44.1,11.7,43.6,11.7z"/>
<path d="M48.9,9.5c-0.7,0-1.2,0.1-1.6,0.4c-0.4,0.3-0.6,0.6-0.6,1.1c0,0.4,0.1,0.7,0.4,1c0.3,0.3,0.7,0.4,1.1,0.4
	c0.5,0,1-0.2,1.3-0.6c0,0.2,0.1,0.4,0.1,0.5h0.8v-0.1c-0.1-0.3-0.2-0.6-0.2-1V9.1c0-0.5-0.2-0.8-0.5-1.1c-0.3-0.3-0.7-0.4-1.3-0.4
	c-0.3,0-0.7,0.1-0.9,0.2c-0.3,0.1-0.5,0.3-0.7,0.5c-0.2,0.2-0.2,0.4-0.2,0.7h0.8c0-0.2,0.1-0.4,0.3-0.5c0.2-0.1,0.4-0.2,0.7-0.2
	c0.3,0,0.6,0.1,0.7,0.2c0.2,0.2,0.3,0.4,0.3,0.7v0.4H48.9z M49.7,11c-0.1,0.2-0.3,0.4-0.5,0.5c-0.2,0.1-0.5,0.2-0.7,0.2
	c-0.3,0-0.5-0.1-0.6-0.2c-0.2-0.1-0.3-0.3-0.3-0.6c0-0.6,0.5-0.9,1.5-0.9h0.6V11z"/>
<polygon points="52.6,8.3 54.7,8.3 54.7,7.7 51.8,7.7 51.8,12.3 52.6,12.3 "/>
<path d="M56.2,11.9c0.3,0.4,0.8,0.5,1.3,0.5c0.6,0,1-0.2,1.3-0.6c0.3-0.4,0.5-1,0.5-1.7V10c0-0.7-0.2-1.3-0.5-1.7
	c-0.3-0.4-0.8-0.6-1.3-0.6c-0.6,0-1,0.2-1.4,0.6l0-0.5h-0.7v6.4h0.8V11.9z M56.2,8.9c0.2-0.4,0.6-0.6,1.1-0.6c0.4,0,0.7,0.2,0.9,0.5
	c0.2,0.3,0.3,0.7,0.3,1.2c0,0.6-0.1,1-0.3,1.3c-0.2,0.3-0.5,0.5-0.9,0.5c-0.5,0-0.9-0.2-1.1-0.6V8.9z"/>
<path d="M62.9,7.7l-1.1,3.5l-1.2-3.5h-0.9l1.7,4.6l-0.2,0.5c-0.1,0.3-0.2,0.5-0.4,0.6c-0.2,0.1-0.4,0.2-0.6,0.2l-0.2,0v0.6l0.3,0.1
	l0.2,0c0.6,0,1.1-0.4,1.4-1.2l1.9-5.3H62.9z"/>
<path d="M66.1,11.8c-0.3,0-0.6-0.1-0.8-0.2c-0.2-0.2-0.3-0.4-0.3-0.6h-0.8c0,0.4,0.2,0.8,0.5,1.1c0.4,0.3,0.8,0.4,1.3,0.4
	c0.6,0,1-0.1,1.3-0.4c0.3-0.2,0.5-0.6,0.5-1c0-0.5-0.3-0.9-0.8-1.1c0.2-0.1,0.4-0.2,0.5-0.4c0.1-0.2,0.2-0.4,0.2-0.6
	c0-0.4-0.2-0.8-0.5-1c-0.3-0.2-0.7-0.3-1.3-0.3c-0.5,0-0.9,0.1-1.3,0.4c-0.3,0.3-0.5,0.6-0.5,1h0.8c0-0.2,0.1-0.4,0.3-0.5
	c0.2-0.1,0.4-0.2,0.7-0.2c0.3,0,0.5,0.1,0.7,0.2c0.2,0.1,0.2,0.3,0.2,0.5c0,0.4-0.3,0.7-0.8,0.7h-0.9v0.7h0.8c0.3,0,0.6,0.1,0.7,0.2
	c0.2,0.1,0.2,0.3,0.2,0.6c0,0.2-0.1,0.4-0.3,0.5C66.7,11.7,66.4,11.8,66.1,11.8z"/>
<polygon points="69.9,11.1 69.9,7.7 69.1,7.7 69.1,12.3 69.9,12.3 72,8.9 72,12.3 72.8,12.3 72.8,7.7 72,7.7 "/>
<polygon points="76,12.3 76,8.3 77.6,8.3 77.6,7.7 73.7,7.7 73.7,8.3 75.2,8.3 75.2,12.3 "/>
<path d="M79.9,12.4c0.8,0,1.4-0.3,1.8-0.9l-0.5-0.4c-0.1,0.2-0.3,0.3-0.5,0.5c-0.2,0.1-0.4,0.2-0.7,0.2c-0.4,0-0.7-0.1-1-0.4
	c-0.3-0.3-0.4-0.6-0.4-1.1h3.2V9.9c0-0.7-0.2-1.3-0.5-1.7c-0.3-0.4-0.8-0.6-1.4-0.6c-0.4,0-0.7,0.1-1,0.3c-0.3,0.2-0.6,0.5-0.7,0.8
	c-0.2,0.4-0.3,0.8-0.3,1.2v0.1c0,0.7,0.2,1.2,0.6,1.7C78.8,12.2,79.3,12.4,79.9,12.4z M79,8.6c0.2-0.2,0.5-0.3,0.8-0.3
	c0.3,0,0.6,0.1,0.8,0.3c0.2,0.2,0.3,0.5,0.3,0.9v0.1h-2.3C78.7,9.2,78.8,8.8,79,8.6z"/>
<path d="M88.4,12c0.3-0.2,0.5-0.5,0.5-1c0-0.3-0.1-0.5-0.3-0.7c-0.2-0.2-0.4-0.3-0.7-0.4c0.3-0.1,0.4-0.2,0.6-0.4
	c0.1-0.2,0.2-0.4,0.2-0.6c0-0.4-0.2-0.7-0.5-0.9c-0.3-0.2-0.8-0.3-1.4-0.3h-1.8v4.6H87C87.6,12.3,88.1,12.2,88.4,12z M85.7,8.3h1.1
	c0.7,0,1.1,0.2,1.1,0.7s-0.4,0.6-1.1,0.6h-1V8.3z M85.7,10.3H87c0.7,0,1,0.2,1,0.7c0,0.2-0.1,0.4-0.2,0.5c-0.2,0.1-0.4,0.2-0.7,0.2
	h-1.3V10.3z"/>
<path d="M25.4,10.4c0.8-1,1.4-2.4,1.2-3.8c-1.2,0.1-2.7,0.8-3.6,1.8c-0.8,0.9-1.5,2.3-1.3,3.7C23.2,12.2,24.6,11.4,25.4,10.4z"/>
<path d="M28.5,19.3c0-3,2.5-4.5,2.6-4.6l0,0c-1.4-2.1-3.7-2.4-4.4-2.4c-1.1-0.1-2.3,0.3-3.2,0.7c-0.6,0.2-1.1,0.4-1.5,0.4
	c-0.4,0-0.9-0.2-1.5-0.4c-0.8-0.3-1.6-0.6-2.5-0.6c-2,0-3.9,1.2-5,3c-2.2,3.7-0.5,9.1,1.5,12.1c1,1.5,2.2,3.1,3.8,3
	c0.7,0,1.2-0.2,1.8-0.5c0.6-0.3,1.2-0.5,2.2-0.5c0.9,0,1.5,0.3,2.1,0.5c0.6,0.2,1.1,0.5,1.9,0.4c1.7,0,2.7-1.5,3.7-2.9
	c1.2-1.7,1.7-3.3,1.7-3.4C31.7,24.1,28.5,22.9,28.5,19.3z"/>
<path d="M80.4,22.1c-0.9-0.3-1.5-0.7-1.8-1c-0.4-0.3-0.6-0.7-0.6-1.2c0-0.4,0.2-0.8,0.5-1.1c0.4-0.3,1-0.5,1.7-0.5
	c0.9,0,1.7,0.2,2.4,0.6l0.5-1.6c-0.8-0.4-1.7-0.6-2.9-0.6c-1.3,0-2.3,0.3-3.1,1c-0.8,0.7-1.2,1.5-1.2,2.5c0,1.6,1.1,2.8,3.3,3.6
	c0.8,0.3,1.4,0.6,1.7,1c0.4,0.3,0.5,0.8,0.5,1.3c0,0.6-0.2,1-0.6,1.4c-0.4,0.3-1,0.5-1.8,0.5c-1.1,0-2-0.3-2.9-0.8l-0.5,1.7
	c0.8,0.5,1.9,0.8,3.3,0.8c1.5,0,2.6-0.4,3.4-1.1c0.8-0.7,1.1-1.5,1.1-2.6c0-0.9-0.3-1.6-0.8-2.2C82.3,23.1,81.5,22.5,80.4,22.1z"/>
<path d="M44.2,16.8l-4.1,12.5h2.1l1.1-3.7h4.1l1.2,3.7h2.2l-4.1-12.5H44.2z M43.8,24.1l1.1-3.3c0.3-1,0.5-1.8,0.6-2.4h0
	c0.3,1.2,0.5,2,0.6,2.4l1.1,3.3H43.8z"/>
<path d="M57.6,20.1c-1.4,0-2.4,0.5-3.1,1.6h0l-0.1-1.4h-1.8c0,1,0.1,2,0.1,3V33h2v-4.8h0c0.5,0.9,1.4,1.3,2.6,1.3
	c1.1,0,2-0.4,2.8-1.2c0.8-0.9,1.3-2.1,1.3-3.6c0-1.4-0.4-2.5-1.1-3.3C59.5,20.5,58.6,20.1,57.6,20.1z M58.6,27.1
	c-0.4,0.6-1,0.9-1.8,0.9c-0.7,0-1.2-0.2-1.6-0.7c-0.4-0.5-0.6-1-0.6-1.7v-1.5c0-0.2,0-0.4,0.1-0.6c0.1-0.5,0.4-1,0.8-1.3
	c0.4-0.3,0.9-0.5,1.4-0.5c0.7,0,1.3,0.3,1.8,0.9c0.4,0.6,0.6,1.3,0.6,2.2C59.3,25.7,59,26.5,58.6,27.1z"/>
<path d="M68,20.1c-1.4,0-2.4,0.5-3.1,1.6h0l-0.1-1.4H63c0,1,0.1,2,0.1,3V33h2v-4.8h0c0.5,0.9,1.4,1.3,2.6,1.3c1.1,0,2-0.4,2.8-1.2
	c0.8-0.9,1.3-2.1,1.3-3.6c0-1.4-0.4-2.5-1.1-3.3C70,20.5,69.1,20.1,68,20.1z M69.1,27.1c-0.4,0.6-1,0.9-1.8,0.9
	c-0.7,0-1.2-0.2-1.6-0.7c-0.4-0.5-0.6-1-0.6-1.7v-1.5c0-0.2,0-0.4,0.1-0.6c0.1-0.5,0.4-1,0.8-1.3c0.4-0.3,0.9-0.5,1.4-0.5
	c0.7,0,1.3,0.3,1.8,0.9c0.4,0.6,0.6,1.3,0.6,2.2C69.8,25.7,69.5,26.5,69.1,27.1z"/>
<path d="M88,18l-2,0.6v1.7h-1.3v1.5H86v4.6c0,1.1,0.2,2,0.7,2.4c0.5,0.5,1.1,0.7,1.9,0.7c0.7,0,1.2-0.1,1.6-0.2l-0.1-1.5
	c-0.2,0.1-0.5,0.1-0.9,0.1c-0.8,0-1.2-0.6-1.2-1.7v-4.4h2.2v-1.5H88V18z"/>
<path d="M95.9,20.1c-1.4,0-2.5,0.4-3.3,1.3c-0.8,0.9-1.2,2-1.2,3.4c0,1.3,0.4,2.4,1.2,3.3c0.8,0.9,1.9,1.3,3.2,1.3
	c1.4,0,2.5-0.5,3.3-1.4c0.8-0.9,1.2-2,1.2-3.4c0-1.4-0.4-2.5-1.2-3.3C98.4,20.5,97.3,20.1,95.9,20.1z M97.7,27
	c-0.4,0.7-1,1.1-1.8,1.1c-0.8,0-1.4-0.4-1.8-1.1c-0.4-0.6-0.5-1.3-0.5-2.1c0-0.9,0.2-1.6,0.5-2.2c0.4-0.7,1-1.1,1.9-1.1
	c0.8,0,1.4,0.4,1.8,1.1c0.4,0.6,0.5,1.3,0.5,2.1C98.2,25.6,98.1,26.3,97.7,27z"/>
<path d="M105,20.6c-0.5,0.4-0.8,0.8-1,1.4h-0.1l-0.1-1.7h-1.8c0,0.9,0.1,1.8,0.1,2.8l0,6.2h2v-4.7c0-0.7,0.2-1.3,0.5-1.8
	c0.4-0.5,0.9-0.8,1.7-0.8c0.2,0,0.4,0,0.6,0.1v-1.9c-0.2,0-0.3,0-0.5,0C105.9,20.1,105.4,20.3,105,20.6z"/>
<path d="M116,24.4c0-1.1-0.3-2.1-0.8-2.8c-0.7-1-1.7-1.4-3-1.4c-1.3,0-2.4,0.5-3.2,1.4c-0.8,0.9-1.1,2-1.1,3.4
	c0,1.4,0.4,2.5,1.2,3.3c0.8,0.8,1.9,1.2,3.3,1.2c1.2,0,2.2-0.2,3.1-0.6l-0.3-1.4c-0.7,0.3-1.6,0.4-2.5,0.4c-0.8,0-1.5-0.2-2-0.6
	c-0.6-0.5-0.9-1.2-0.9-2h6.1C116,25,116,24.7,116,24.4z M109.8,23.9c0.1-0.6,0.3-1.1,0.6-1.6c0.4-0.5,1-0.8,1.6-0.8
	c0.7,0,1.3,0.3,1.6,0.8c0.3,0.4,0.4,0.9,0.4,1.5L109.8,23.9z"/>
</svg>
