<?xml version="1.0" encoding="utf-8"?>
<!-- Generator: Adobe Illustrator 22.1.0, SVG Export Plug-In . SVG Version: 6.00 Build 0)  -->
<svg version="1.1" id="Слой_1" xmlns="http://www.w3.org/2000/svg" xmlns:xlink="http://www.w3.org/1999/xlink" x="0px" y="0px"
	 width="128px" height="38px" viewBox="0 0 128 38" style="enable-background:new 0 0 128 38;" xml:space="preserve">
<style type="text/css">
	.st0{fill:none;}
	.st1{fill:#FFFFFF;}
	.st2{fill:url(#SVGID_1_);}
	.st3{fill:url(#SVGID_2_);}
	.st4{fill:url(#SVGID_3_);}
	.st5{fill:url(#SVGID_4_);}
</style>
<rect class="st0" width="128" height="38"/>
<path class="st1" d="M123.3,38H4.7C2.1,38,0,35.9,0,33.3V4.8C0,2.1,2.1,0,4.7,0h118.5c2.6,0,4.7,2.1,4.7,4.7v28.5
	C128,35.9,125.9,38,123.3,38z"/>
<linearGradient id="SVGID_1_" gradientUnits="userSpaceOnUse" x1="20.1127" y1="9.9767" x2="0.9068" y2="30.0507" gradientTransform="matrix(1 0 0 -1 0 40)">
	<stop  offset="0" style="stop-color:#00A0FF"/>
	<stop  offset="6.599999e-03" style="stop-color:#00A1FF"/>
	<stop  offset="0.2601" style="stop-color:#00BEFF"/>
	<stop  offset="0.5122" style="stop-color:#00D2FF"/>
	<stop  offset="0.7604" style="stop-color:#00DFFF"/>
	<stop  offset="1" style="stop-color:#00E3FF"/>
</linearGradient>
<path class="st2" d="M9.4,7.9C9.2,8.2,9,8.6,9,9.2v20.5c0,0.6,0.2,1,0.4,1.3L9.5,31l11.8-11.5v-0.3L9.4,7.9L9.4,7.9z"/>
<linearGradient id="SVGID_2_" gradientUnits="userSpaceOnUse" x1="31.8029" y1="20.6021" x2="2.8319" y2="20.6021" gradientTransform="matrix(1 0 0 -1 0 40)">
	<stop  offset="0" style="stop-color:#FFE000"/>
	<stop  offset="0.4087" style="stop-color:#FFBD00"/>
	<stop  offset="0.7754" style="stop-color:#FFA500"/>
	<stop  offset="1" style="stop-color:#FF9C00"/>
</linearGradient>
<path class="st3" d="M25.3,23.4l-3.9-3.8v-0.3l3.9-3.8l0.1,0l4.7,2.6c1.3,0.7,1.3,1.9,0,2.7L25.3,23.4L25.3,23.4z"/>
<linearGradient id="SVGID_3_" gradientUnits="userSpaceOnUse" x1="15.3068" y1="15.0887" x2="-10.7381" y2="42.3106" gradientTransform="matrix(1 0 0 -1 0 40)">
	<stop  offset="0" style="stop-color:#FF3A44"/>
	<stop  offset="1" style="stop-color:#C31162"/>
</linearGradient>
<path class="st4" d="M25.4,23.3l-4-3.9L9.4,30.9c0.4,0.5,1.2,0.5,2,0.1L25.4,23.3z"/>
<linearGradient id="SVGID_4_" gradientUnits="userSpaceOnUse" x1="-0.7961" y1="9.2833" x2="10.8341" y2="21.4391" gradientTransform="matrix(1 0 0 -1 0 40)">
	<stop  offset="0" style="stop-color:#32A071"/>
	<stop  offset="6.850000e-02" style="stop-color:#2DA771"/>
	<stop  offset="0.4762" style="stop-color:#15CF74"/>
	<stop  offset="0.8009" style="stop-color:#06E775"/>
	<stop  offset="1" style="stop-color:#00F076"/>
</linearGradient>
<path class="st5" d="M25.4,15.5l-14-7.7c-0.8-0.4-1.5-0.4-2,0.1l11.9,11.5L25.4,15.5z"/>
<path d="M42.7,8.7c0-0.3-0.1-0.6-0.4-0.8c-0.2-0.2-0.6-0.3-1-0.3c-0.4,0-0.7,0.1-0.9,0.3c-0.2,0.2-0.4,0.4-0.4,0.7h-0.8
	c0-0.3,0.1-0.6,0.3-0.9c0.2-0.3,0.4-0.5,0.8-0.6C40.6,7.1,40.9,7,41.3,7c0.7,0,1.2,0.2,1.6,0.5c0.4,0.3,0.6,0.7,0.6,1.3
	c0,0.3-0.1,0.5-0.3,0.8c-0.2,0.2-0.4,0.4-0.7,0.5c0.7,0.2,1.1,0.7,1.1,1.4c0,0.5-0.2,1-0.6,1.3c-0.4,0.3-1,0.5-1.7,0.5
	c-0.4,0-0.8-0.1-1.1-0.2c-0.3-0.1-0.6-0.3-0.8-0.6c-0.2-0.3-0.3-0.6-0.3-0.9H40c0,0.3,0.1,0.6,0.4,0.8c0.3,0.2,0.6,0.3,1,0.3
	c0.4,0,0.8-0.1,1.1-0.3c0.3-0.2,0.4-0.5,0.4-0.8c0-0.7-0.4-1.1-1.3-1.1h-0.8V9.7h0.8c0.4,0,0.7-0.1,0.9-0.3
	C42.6,9.3,42.7,9,42.7,8.7z"/>
<path d="M47.4,13.1c0-0.1-0.1-0.2-0.1-0.5c-0.4,0.4-0.8,0.6-1.3,0.6c-0.5,0-0.8-0.1-1.1-0.4c-0.3-0.2-0.4-0.6-0.4-1
	c0-0.5,0.2-0.8,0.5-1.1c0.4-0.3,0.9-0.4,1.5-0.4h0.8V10c0-0.3-0.1-0.5-0.2-0.6c-0.2-0.2-0.4-0.2-0.7-0.2c-0.3,0-0.5,0.1-0.7,0.2
	c-0.2,0.1-0.3,0.3-0.3,0.5h-0.8c0-0.2,0.1-0.4,0.2-0.6c0.2-0.2,0.4-0.4,0.7-0.5c0.3-0.1,0.6-0.2,0.9-0.2c0.5,0,0.9,0.1,1.2,0.4
	C47.9,9.2,48,9.6,48,10v2.1c0,0.4,0.1,0.7,0.2,1v0.1H47.4z M46.1,12.5c0.2,0,0.5-0.1,0.7-0.2c0.2-0.1,0.4-0.3,0.5-0.5v-0.9h-0.6
	c-1,0-1.4,0.3-1.4,0.8c0,0.2,0.1,0.4,0.2,0.6C45.6,12.5,45.8,12.5,46.1,12.5z"/>
<path d="M52.2,9.3h-2.1v3.8h-0.8V8.6h2.9V9.3z"/>
<path d="M56.8,10.9c0,0.7-0.2,1.2-0.5,1.6C56,13,55.5,13.2,55,13.2c-0.6,0-1-0.2-1.3-0.5v2.2h-0.8V8.6h0.7l0,0.5
	C54,8.7,54.4,8.6,55,8.6c0.6,0,1,0.2,1.3,0.6C56.6,9.6,56.8,10.1,56.8,10.9L56.8,10.9z M56,10.8c0-0.5-0.1-0.9-0.3-1.2
	c-0.2-0.3-0.5-0.4-0.9-0.4c-0.5,0-0.8,0.2-1.1,0.6V12c0.2,0.4,0.6,0.6,1.1,0.6c0.4,0,0.7-0.1,0.9-0.4C55.9,11.8,56,11.4,56,10.8z"/>
<path d="M59.2,12l1.1-3.4h0.8l-1.8,5.2c-0.3,0.7-0.7,1.1-1.4,1.1l-0.1,0l-0.3-0.1v-0.6l0.2,0c0.3,0,0.5-0.1,0.6-0.2
	c0.1-0.1,0.3-0.3,0.4-0.6l0.2-0.5l-1.6-4.4h0.9L59.2,12z"/>
<path d="M64.3,9.9c0-0.2-0.1-0.4-0.2-0.5c-0.2-0.1-0.4-0.2-0.7-0.2c-0.3,0-0.5,0.1-0.7,0.2c-0.2,0.1-0.3,0.3-0.3,0.5h-0.8
	c0-0.4,0.2-0.7,0.5-1c0.3-0.2,0.7-0.4,1.2-0.4c0.5,0,1,0.1,1.3,0.3c0.3,0.2,0.4,0.5,0.4,1c0,0.2-0.1,0.4-0.2,0.6
	c-0.1,0.2-0.3,0.3-0.5,0.4c0.5,0.2,0.8,0.5,0.8,1c0,0.4-0.2,0.7-0.5,1c-0.3,0.2-0.8,0.4-1.3,0.4c-0.5,0-1-0.1-1.3-0.4
	c-0.3-0.3-0.5-0.6-0.5-1h0.8c0,0.2,0.1,0.4,0.3,0.6c0.2,0.2,0.4,0.2,0.7,0.2c0.3,0,0.5-0.1,0.7-0.2c0.2-0.1,0.3-0.3,0.3-0.5
	c0-0.3-0.1-0.4-0.2-0.5c-0.2-0.1-0.4-0.2-0.7-0.2h-0.8v-0.7h0.9C64.1,10.5,64.3,10.3,64.3,9.9z"/>
<path d="M69.2,8.6H70v4.5h-0.8V9.8l-2.1,3.3h-0.8V8.6h0.8v3.3L69.2,8.6z"/>
<path d="M74.6,9.3h-1.5v3.9h-0.8V9.3h-1.5V8.6h3.8V9.3z"/>
<path d="M76.9,13.2c-0.6,0-1.1-0.2-1.5-0.6c-0.4-0.4-0.6-0.9-0.6-1.6v-0.1c0-0.4,0.1-0.8,0.3-1.2c0.2-0.3,0.4-0.6,0.7-0.8
	c0.3-0.2,0.6-0.3,1-0.3c0.6,0,1.1,0.2,1.4,0.6c0.3,0.4,0.5,0.9,0.5,1.6v0.3h-3.1c0,0.4,0.1,0.8,0.4,1.1c0.3,0.3,0.6,0.4,1,0.4
	c0.3,0,0.5-0.1,0.7-0.2c0.2-0.1,0.4-0.3,0.5-0.4l0.5,0.4C78.3,12.9,77.7,13.2,76.9,13.2z M76.8,9.2c-0.3,0-0.6,0.1-0.8,0.3
	c-0.2,0.2-0.3,0.5-0.4,0.9h2.3v-0.1c0-0.4-0.1-0.7-0.3-0.9C77.4,9.3,77.2,9.2,76.8,9.2z"/>
<path d="M85.5,13.1h-0.8v-1.9h-2.1v1.9h-0.8V8.6h0.8v1.9h2.1V8.6h0.8V13.1z"/>
<path d="M89.6,13.1c0-0.1-0.1-0.2-0.1-0.5c-0.4,0.4-0.8,0.6-1.3,0.6c-0.5,0-0.8-0.1-1.1-0.4c-0.3-0.2-0.4-0.6-0.4-1
	c0-0.5,0.2-0.8,0.5-1.1c0.4-0.3,0.9-0.4,1.5-0.4h0.8V10c0-0.3-0.1-0.5-0.2-0.6c-0.2-0.2-0.4-0.2-0.7-0.2c-0.3,0-0.5,0.1-0.7,0.2
	c-0.2,0.1-0.3,0.3-0.3,0.5h-0.8c0-0.2,0.1-0.4,0.2-0.6c0.2-0.2,0.4-0.4,0.7-0.5c0.3-0.1,0.6-0.2,0.9-0.2c0.5,0,0.9,0.1,1.2,0.4
	c0.3,0.3,0.5,0.6,0.5,1.1v2.1c0,0.4,0.1,0.7,0.2,1v0.1H89.6z M88.3,12.5c0.2,0,0.5-0.1,0.7-0.2c0.2-0.1,0.4-0.3,0.5-0.5v-0.9h-0.6
	c-1,0-1.4,0.3-1.4,0.8c0,0.2,0.1,0.4,0.2,0.6C87.8,12.5,88,12.5,88.3,12.5z"/>
<path d="M60.5,25c0-2.3,1.8-3.9,4.1-3.9c2.2,0,4.1,1.7,4.1,3.9c0,2.3-1.8,3.9-4.1,3.9C62.3,28.9,60.5,27.2,60.5,25z M62.3,25
	c0,1.4,1.1,2.4,2.3,2.4c1.2,0,2.3-1,2.3-2.4c0-1.4-1.1-2.4-2.3-2.4C63.3,22.6,62.3,23.5,62.3,25z"/>
<path d="M51.6,25c0-2.3,1.8-3.9,4.1-3.9c2.2,0,4.1,1.7,4.1,3.9c0,2.3-1.8,3.9-4.1,3.9C53.4,28.9,51.6,27.2,51.6,25z M53.4,25
	c0,1.4,1.1,2.4,2.3,2.4c1.2,0,2.3-1,2.3-2.4c0-1.4-1.1-2.4-2.3-2.4C54.4,22.6,53.4,23.5,53.4,25z"/>
<path d="M45.1,23.9v-1.7h5.8c0.1,0.3,0.1,0.7,0.1,1c0,1.3-0.4,2.8-1.5,3.9c-1.1,1.1-2.5,1.7-4.4,1.7c-3.5,0-6.4-2.7-6.4-6.1
	c0-3.4,2.9-6.1,6.4-6.1c1.9,0,3.3,0.7,4.3,1.7l-1.2,1.2c-0.7-0.7-1.7-1.2-3.1-1.2c-2.5,0-4.5,2-4.5,4.4c0,2.5,2,4.4,4.5,4.4
	c1.6,0,2.6-0.6,3.2-1.2c0.5-0.5,0.8-1.2,0.9-2.1H45.1z"/>
<path d="M84.9,21c2.1,0,3.1,1.6,3.5,2.5l0.2,0.4l-5.4,2.2c0.4,0.8,1.1,1.2,2,1.2c0.9,0,1.5-0.4,2-1.1l1.4,0.9
	c-0.4,0.6-1.5,1.7-3.4,1.7c-2.3,0-4-1.7-4-3.9C81.1,22.6,82.8,21,84.9,21z M85,22.5c-0.9,0-2.2,0.8-2.1,2.3l3.6-1.5
	C86.3,22.9,85.7,22.5,85,22.5z"/>
<path d="M80.2,28.6h-1.8V17.1h1.8V28.6z"/>
<path d="M75.4,21.9L75.4,21.9l0.1-0.6h1.7v7.1c0,2.9-1.8,4.1-3.9,4.1c-2,0-3.2-1.3-3.6-2.3l1.6-0.6c0.3,0.6,1,1.4,2,1.4
	c1.3,0,2.2-0.8,2.2-2.3V28h-0.1c-0.4,0.5-1.2,0.9-2.1,0.9c-2,0-3.9-1.7-3.9-3.9c0-2.2,1.9-3.9,3.9-3.9C74.3,21,75,21.4,75.4,21.9z
	 M71.2,25c0,1.4,1,2.4,2.3,2.4c1.2,0,2.2-1,2.2-2.4c0-1.4-1-2.4-2.2-2.4C72.2,22.6,71.2,23.6,71.2,25z"/>
<path d="M92.5,17.1h4.3c2,0,3.9,1.4,3.9,3.6c0,2.2-1.9,3.6-3.9,3.6h-2.5v4.4h-1.8V17.1z M94.3,22.7h2.5c1.3,0,2.1-1.1,2.1-2
	c0-0.9-0.8-2-2.1-2h-2.5V22.7z"/>
<path d="M104.6,22.8c0.6-1.2,1.9-1.8,3.2-1.8c2,0,3.6,1.1,3.6,3.2v4.4h-1.7v-0.9h-0.1c-0.4,0.6-1.1,1.1-2.3,1.1c-1.6,0-3-1-3-2.5
	c0-1.7,1.7-2.6,3.4-2.6c0.8,0,1.5,0.3,1.9,0.4V24c0-0.9-1-1.5-1.9-1.5c-0.7,0-1.3,0.2-1.6,0.8L104.6,22.8z M106.2,26.4
	c0,0.7,0.8,1,1.4,1c1,0,2-0.8,2.1-1.8c-0.5-0.2-0.8-0.4-1.6-0.4C107.2,25.1,106.2,25.5,106.2,26.4z"/>
<path d="M115.7,26.3l2-5h2l-4.9,10.9h-1.9l1.8-3.9l-3.2-7h1.9L115.7,26.3L115.7,26.3z"/>
<path d="M103.4,28.6h-1.8V17.1h1.8V28.6z"/>
</svg>
